<?xml version="1.0" encoding="UTF-8" standalone="no"?>
<!-- Created with Inkscape (http://www.inkscape.org/) -->

<svg
   width="41.146072mm"
   height="36.044861mm"
   viewBox="0 0 41.146072 36.044861"
   version="1.1"
   id="svg5"
   xml:space="preserve"
   inkscape:export-filename="tete.svg"
   inkscape:export-xdpi="30.963808"
   inkscape:export-ydpi="30.963808"
   xmlns:inkscape="http://www.inkscape.org/namespaces/inkscape"
   xmlns:sodipodi="http://sodipodi.sourceforge.net/DTD/sodipodi-0.dtd"
   xmlns="http://www.w3.org/2000/svg"
   xmlns:svg="http://www.w3.org/2000/svg"><sodipodi:namedview
     id="namedview7"
     pagecolor="#ffffff"
     bordercolor="#000000"
     borderopacity="0.25"
     inkscape:showpageshadow="2"
     inkscape:pageopacity="0.0"
     inkscape:pagecheckerboard="0"
     inkscape:deskcolor="#d1d1d1"
     inkscape:document-units="mm"
     showgrid="false" /><defs
     id="defs2" /><g
     inkscape:label="Calque 1"
     inkscape:groupmode="layer"
     id="layer1"
     style="display:inline"
     transform="translate(-72.65703,-135.78027)"><path
       style="display:inline;fill:#000000;stroke-width:0.0586809"
       d="m 92.340633,171.73781 c -1.448986,-0.31539 -2.801052,-1.13569 -4.284361,-2.59935 -3.237873,-3.19497 -5.86471,-8.62562 -6.558814,-13.55953 -0.124989,-0.8885 -0.143097,-3.02489 -0.03265,-3.84848 0.460054,-3.4294 2.018546,-6.06758 4.56315,-7.72439 1.579104,-1.02815 3.323754,-1.63457 5.485892,-1.90681 0.723165,-0.091 2.820074,-0.091 3.543228,0 5.750762,0.72408 9.315612,4.14084 10.048742,9.6312 0.11041,0.82683 0.0944,2.908 -0.0289,3.7838 -0.72461,5.13788 -3.65614,10.85771 -7.244032,14.13411 -1.087738,0.99331 -2.389378,1.77065 -3.395589,2.02784 -0.679548,0.1737 -1.474185,0.19705 -2.09642,0.0616 z m -0.82675,-7.16886 c 0.26141,-0.0388 0.266415,-0.0437 0.306895,-0.30181 0.08121,-0.51779 0.06076,-1.64844 -0.03789,-2.0973 -0.257582,-1.17216 -0.778715,-2.12011 -1.61608,-2.93969 -1.332025,-1.30372 -2.971744,-1.84573 -4.950762,-1.63647 -0.471843,0.0499 -0.465401,0.0316 -0.459243,1.30893 0.0048,1.10932 0.09906,1.55782 0.497037,2.37994 0.820351,1.69444 2.287607,2.84454 4.134047,3.24044 0.402298,0.0863 1.669476,0.11366 2.125932,0.046 z m 5.993968,-0.11914 c 1.662378,-0.44176 3.047129,-1.59314 3.809249,-3.16726 0.398,-0.82212 0.49166,-1.27062 0.49705,-2.37994 0.006,-1.27738 0.0124,-1.25903 -0.45924,-1.30893 -1.97904,-0.20926 -3.618765,0.33275 -4.950787,1.63647 -0.837366,0.81958 -1.358489,1.76753 -1.61607,2.93969 -0.09864,0.44886 -0.119031,1.57951 -0.03789,2.0973 0.03944,0.25158 0.0509,0.26399 0.277365,0.30082 0.129914,0.0211 0.634826,0.0314 1.122022,0.0229 0.683496,-0.012 0.993712,-0.0442 1.358239,-0.14106 z"
       id="path179"
       inkscape:export-filename="path179.svg"
       inkscape:export-xdpi="136.67393"
       inkscape:export-ydpi="136.67393" /><path
       style="fill:#000000;stroke-width:0.0794919"
       d="m 78.959956,166.67007 c 0,-0.0402 -0.06015,-0.0731 -0.133658,-0.0731 -0.07351,0 -0.229186,-0.0807 -0.34594,-0.17935 l -0.212282,-0.17934 v -6.57911 c 0,-4.33736 0.02947,-6.57911 0.08648,-6.57911 0.04757,0 0.08648,-0.0635 0.08648,-0.14121 0,-0.0776 0.07784,-0.16207 0.17297,-0.18758 0.09513,-0.0255 0.17297,-0.077 0.17297,-0.11452 0,-0.0375 0.23351,-0.0682 0.51891,-0.0682 0.285401,0 0.51891,0.0323 0.51891,0.0716 0,0.0394 0.0973,0.0923 0.216213,0.11751 l 0.216212,0.0459 v 6.73936 c 0,6.47482 -0.0063,6.74552 -0.161493,6.89665 -0.08882,0.0865 -0.205576,0.15731 -0.259455,0.15731 -0.05388,0 -0.09796,0.0329 -0.09796,0.0731 0,0.0402 -0.175132,0.0731 -0.389182,0.0731 -0.214051,0 -0.389183,-0.0329 -0.389183,-0.0731 z m 27.761684,0 c 0,-0.0402 -0.0441,-0.0731 -0.098,-0.0731 -0.0539,0 -0.17083,-0.071 -0.2599,-0.15775 -0.1561,-0.15206 -0.16114,-0.40165 -0.13987,-6.92284 l 0.0221,-6.76511 0.19459,-0.0233 c 0.10703,-0.0128 0.19459,-0.0539 0.19459,-0.0913 0,-0.0374 0.23351,-0.068 0.51891,-0.068 0.2854,0 0.51891,0.0307 0.51891,0.0682 0,0.0375 0.0778,0.089 0.17297,0.11452 0.0951,0.0255 0.17297,0.10992 0.17297,0.18759 0,0.0776 0.0389,0.1412 0.0865,0.1412 0.057,0 0.0865,2.24175 0.0865,6.57911 v 6.57911 l -0.21228,0.17934 c -0.11675,0.0986 -0.27243,0.17935 -0.34594,0.17935 -0.0735,0 -0.13366,0.0329 -0.13366,0.0731 0,0.0402 -0.17513,0.0731 -0.38918,0.0731 -0.21405,0 -0.38918,-0.0329 -0.38918,-0.0731 z m -29.188686,-0.14613 c -0.0294,-0.0402 -0.148449,-0.0731 -0.264559,-0.0731 -0.11611,0 -0.211109,-0.0329 -0.211109,-0.0731 0,-0.0402 -0.05838,-0.0731 -0.129727,-0.0731 -0.07135,0 -0.129727,-0.0493 -0.129727,-0.1096 0,-0.12802 -0.136368,-0.14568 -0.221919,-0.0287 -0.03254,0.0444 -0.08348,0.0527 -0.113211,0.0182 -0.08689,-0.10064 -0.428951,-0.24526 -0.58006,-0.24526 -0.07654,0 -0.246868,-0.0648 -0.378497,-0.14397 -0.131629,-0.0792 -0.261886,-0.12491 -0.28946,-0.10161 -0.06247,0.0528 -0.578978,-0.13514 -0.578978,-0.21064 0,-0.0304 -0.07784,-0.0553 -0.17297,-0.0553 -0.09513,0 -0.17297,-0.0329 -0.17297,-0.0731 0,-0.0402 -0.05838,-0.0731 -0.129728,-0.0731 -0.07135,0 -0.129727,-0.0493 -0.129727,-0.1096 0,-0.0603 -0.06116,-0.10959 -0.135905,-0.10959 -0.161556,0 -0.383005,-0.17226 -0.383005,-0.29793 0,-0.0491 -0.136214,-0.20092 -0.302698,-0.33752 -0.166483,-0.1366 -0.302697,-0.28878 -0.302697,-0.33819 0,-0.0494 -0.05961,-0.16171 -0.132462,-0.24958 -0.115922,-0.13982 -0.129421,-0.68164 -0.108106,-4.33925 0.01902,-3.2639 0.04804,-4.18616 0.132462,-4.20992 0.05946,-0.0167 0.108106,-0.077 0.108106,-0.13392 0,-0.0569 0.05366,-0.10351 0.119235,-0.10351 0.06558,0 0.16939,-0.10686 0.23069,-0.23746 0.0613,-0.1306 0.318991,-0.40517 0.572645,-0.61014 0.439193,-0.35492 0.575668,-0.61835 0.374705,-0.72328 -0.117594,-0.0614 -0.117594,-3.10523 0,-3.10523 0.04879,0 0.08648,-0.20702 0.08648,-0.47492 0,-0.26791 0.0377,-0.47492 0.08648,-0.47492 0.04757,0 0.08648,-0.18084 0.08648,-0.40185 0,-0.22102 0.03892,-0.40186 0.08648,-0.40186 0.04757,0 0.08648,-0.11508 0.08648,-0.25572 0,-0.14065 0.03389,-0.25573 0.07531,-0.25573 0.04142,0 0.101732,-0.19728 0.134022,-0.43839 0.03229,-0.24111 0.09569,-0.43838 0.140898,-0.43838 0.0452,0 0.08219,-0.0822 0.08219,-0.18266 0,-0.10047 0.03892,-0.18266 0.08649,-0.18266 0.04757,0 0.08648,-0.0967 0.08648,-0.21488 0,-0.11819 0.03892,-0.23521 0.08648,-0.26004 0.04757,-0.0248 0.08648,-0.0923 0.08648,-0.14994 0,-0.14901 0.287264,-0.6903 0.366341,-0.6903 0.03635,0 0.06608,-0.0493 0.06608,-0.1096 0,-0.0602 0.03892,-0.1096 0.08648,-0.1096 0.04757,0 0.08672,-0.0575 0.08702,-0.12786 2.94e-4,-0.0703 0.05867,-0.22204 0.129728,-0.33713 0.07106,-0.11511 0.129195,-0.26403 0.129195,-0.33093 0,-0.0669 0.07784,-0.16905 0.17297,-0.22698 0.09513,-0.058 0.17297,-0.16382 0.17297,-0.23531 0,-0.0715 0.03892,-0.13001 0.08648,-0.13001 0.04757,0 0.08648,-0.0493 0.08648,-0.10959 0,-0.0602 0.03892,-0.1096 0.08648,-0.1096 0.04757,0 0.08648,-0.0478 0.08648,-0.10627 0,-0.0585 0.0973,-0.18847 0.216212,-0.28894 0.118917,-0.10047 0.216212,-0.21861 0.216212,-0.26254 0,-0.0439 0.0973,-0.15605 0.216213,-0.24915 0.118917,-0.0931 0.216212,-0.24053 0.216212,-0.3276 0,-0.0871 0.05838,-0.17723 0.129728,-0.20036 0.07135,-0.0232 0.129727,-0.0715 0.129727,-0.1075 0,-0.036 0.155673,-0.18425 0.34594,-0.32947 0.190267,-0.14522 0.34594,-0.29513 0.34594,-0.33313 0,-0.0609 0.279525,-0.31378 1.540007,-1.39294 0.175681,-0.1504 0.384905,-0.27371 0.464941,-0.27398 0.08004,-2.9e-4 0.167376,-0.058 0.194089,-0.12839 0.02671,-0.0703 0.165436,-0.19362 0.308277,-0.27399 0.14284,-0.0804 0.25982,-0.17079 0.259957,-0.20093 1.73e-4,-0.0302 0.07546,-0.0548 0.167391,-0.0548 0.09193,0 0.188868,-0.0578 0.215424,-0.12851 0.04547,-0.12102 0.248704,-0.24248 0.587526,-0.35111 0.08167,-0.0262 0.169284,-0.10159 0.194704,-0.16758 0.02542,-0.066 0.283861,-0.2186 0.574308,-0.33916 0.801556,-0.33271 0.855446,-0.35911 0.855446,-0.41918 0,-0.0307 0.07784,-0.0558 0.17297,-0.0558 0.09513,0 0.17297,-0.0329 0.17297,-0.0731 0,-0.0402 0.03865,-0.0731 0.08589,-0.0731 0.147686,0 0.778958,-0.25082 0.778958,-0.3095 0,-0.0307 0.07459,-0.0558 0.165763,-0.0558 0.09117,0 0.179572,-0.035 0.196451,-0.0778 0.01688,-0.0427 0.195253,-0.0964 0.396389,-0.11922 0.201136,-0.0228 0.365702,-0.07 0.365702,-0.10488 0,-0.0349 0.0973,-0.0634 0.216212,-0.0634 0.118917,0 0.216213,-0.0329 0.216213,-0.0731 0,-0.0402 0.09729,-0.0731 0.216212,-0.0731 0.118917,0 0.216213,-0.0329 0.216213,-0.0731 0,-0.0402 0.07784,-0.0731 0.17297,-0.0731 0.09513,0 0.17297,-0.0329 0.17297,-0.0731 0,-0.0402 0.119312,-0.0731 0.26514,-0.0731 0.145828,0 0.340634,-0.0341 0.432903,-0.0759 0.09227,-0.0417 0.420516,-0.0958 0.729437,-0.12015 0.308921,-0.0244 0.561674,-0.0724 0.561674,-0.10682 0,-0.0344 0.23351,-0.0625 0.51891,-0.0625 0.285401,0 0.51891,-0.0308 0.51891,-0.0684 0,-0.0376 0.398912,-0.086 0.886471,-0.10762 0.48756,-0.0216 1.192638,-0.0593 1.566841,-0.0838 0.441649,-0.029 0.713236,-0.0168 0.774041,0.0346 0.05511,0.0465 0.460356,0.0792 0.984466,0.0792 0.536207,0 0.890796,0.0291 0.890796,0.0731 0,0.0402 0.21405,0.0731 0.475667,0.0731 0.261617,0 0.475668,0.0281 0.475668,0.0625 0,0.0344 0.252753,0.0824 0.561674,0.10681 0.308921,0.0243 0.637168,0.0784 0.729437,0.12016 0.09227,0.0417 0.287075,0.0759 0.432903,0.0759 0.145828,0 0.26514,0.0329 0.26514,0.0731 0,0.0402 0.07784,0.0731 0.17297,0.0731 0.09513,0 0.17297,0.0329 0.17297,0.0731 0,0.0402 0.0973,0.0731 0.216213,0.0731 0.118917,0 0.216212,0.0329 0.216212,0.0731 0,0.0402 0.0973,0.0731 0.216213,0.0731 0.118917,0 0.216214,0.0286 0.216214,0.0634 0,0.0349 0.164557,0.0821 0.365697,0.10488 0.20114,0.0228 0.37952,0.0765 0.39639,0.11923 0.0169,0.0427 0.10529,0.0778 0.19646,0.0778 0.0912,0 0.16576,0.0251 0.16576,0.0559 0,0.0587 0.63127,0.30949 0.77896,0.30949 0.0472,0 0.0859,0.0329 0.0859,0.0731 0,0.0402 0.0913,0.0731 0.2028,0.0731 0.11155,0 0.27545,0.0678 0.36423,0.15069 0.0888,0.0829 0.38665,0.23905 0.66193,0.34706 0.27528,0.108 0.52264,0.25391 0.54969,0.32423 0.027,0.0703 0.10616,0.12786 0.1758,0.12786 0.0696,0 0.14902,0.0493 0.1764,0.1096 0.0274,0.0602 0.12083,0.10959 0.20767,0.10959 0.0868,0 0.18259,0.0657 0.21278,0.14613 0.0302,0.0803 0.11733,0.14613 0.19363,0.14613 0.0763,0 0.30653,0.14796 0.51162,0.3288 0.2051,0.18083 0.42106,0.32878 0.47991,0.32878 0.11432,0 1.97155,1.58134 1.97155,1.67867 0,0.0319 0.15567,0.17669 0.34594,0.32191 0.19026,0.14522 0.34594,0.29348 0.34594,0.32947 0,0.036 0.0584,0.0844 0.12972,0.1075 0.0713,0.0232 0.12973,0.11329 0.12973,0.20036 0,0.0871 0.0973,0.23449 0.21621,0.3276 0.11892,0.0931 0.21622,0.20522 0.21622,0.24915 0,0.0439 0.0973,0.16207 0.21621,0.26254 0.11892,0.10047 0.21621,0.23049 0.21621,0.28894 0,0.0585 0.0389,0.10627 0.0865,0.10627 0.0476,0 0.0865,0.0493 0.0865,0.1096 0,0.0602 0.0389,0.1096 0.0865,0.1096 0.0476,0 0.0865,0.0536 0.0865,0.11928 0,0.0657 0.0728,0.17264 0.16179,0.23785 0.089,0.0652 0.1897,0.25811 0.22382,0.42868 0.0341,0.17058 0.0975,0.31015 0.1409,0.31015 0.0434,0 0.0789,0.0657 0.0789,0.14613 0,0.0803 0.0389,0.14612 0.0865,0.14612 0.0476,0 0.0865,0.0493 0.0865,0.1096 0,0.0602 0.0297,0.1096 0.0661,0.1096 0.0902,0 0.36634,0.55106 0.36634,0.73114 0,0.0801 0.0389,0.14563 0.0865,0.14563 0.0476,0 0.0865,0.0986 0.0865,0.21919 0,0.12056 0.0389,0.2192 0.0865,0.2192 0.0476,0 0.0865,0.0822 0.0865,0.18266 0,0.10046 0.037,0.18266 0.0822,0.18266 0.0452,0 0.10861,0.19727 0.1409,0.43838 0.0323,0.24111 0.0926,0.43839 0.13403,0.43839 0.0414,0 0.0753,0.11508 0.0753,0.25573 0,0.14064 0.0389,0.25572 0.0865,0.25572 0.0476,0 0.0865,0.1781 0.0865,0.39577 0,0.24887 0.0396,0.40691 0.10669,0.4258 0.0809,0.0228 0.11154,0.56694 0.12673,2.24962 l 0.02,2.21956 0.43357,0.332 c 0.28694,0.21971 0.45249,0.41231 0.48949,0.56945 0.0392,0.16669 0.10424,0.23747 0.21806,0.23747 0.0892,0 0.16216,0.0465 0.16216,0.1035 0,0.0569 0.0486,0.1172 0.10811,0.13392 0.0844,0.0237 0.11345,0.94005 0.13249,4.18002 0.0213,3.62743 0.008,4.17108 -0.1081,4.32042 -0.0729,0.094 -0.1325,0.21973 -0.1325,0.27949 0,0.0597 -0.13621,0.22041 -0.3027,0.35701 -0.16648,0.1366 -0.3027,0.28848 -0.3027,0.33752 0,0.12568 -0.22144,0.29793 -0.383,0.29793 -0.0747,0 -0.13591,0.0493 -0.13591,0.10959 0,0.0602 -0.0584,0.1096 -0.12972,0.1096 -0.0713,0 -0.12973,0.0329 -0.12973,0.0731 0,0.0402 -0.0778,0.0731 -0.17297,0.0731 -0.0951,0 -0.17327,0.0247 -0.17364,0.0548 -9e-4,0.0728 -0.42722,0.23746 -0.61476,0.23746 -0.0817,0 -0.16233,0.035 -0.17921,0.0778 -0.0169,0.0427 -0.19525,0.0964 -0.39639,0.11922 -0.20113,0.0228 -0.3657,0.0699 -0.3657,0.10487 0,0.0349 -0.0584,0.0635 -0.12973,0.0635 -0.0713,0 -0.12973,0.0394 -0.12973,0.0877 0,0.0682 -0.0231,0.0682 -0.10378,0 -0.14125,-0.11933 -0.24216,-0.11019 -0.24216,0.022 0,0.0602 -0.0584,0.1096 -0.12972,0.1096 -0.0713,0 -0.12973,0.0329 -0.12973,0.0731 0,0.0402 -0.095,0.0731 -0.21111,0.0731 -0.11611,0 -0.23516,0.0329 -0.26456,0.0731 -0.0294,0.0402 -0.10953,0.0731 -0.17807,0.0731 -0.10764,0 -0.12462,-0.95575 -0.12462,-7.01418 0,-4.62741 0.0294,-7.01418 0.0865,-7.01418 0.0476,0 0.0865,0.0325 0.0865,0.0722 0,0.0397 0.15567,0.0932 0.34594,0.11893 0.19026,0.0257 0.34593,0.0754 0.34593,0.11046 0,0.0351 0.0778,0.0637 0.17297,0.0637 0.0951,0 0.17297,0.0329 0.17297,0.0731 0,0.0402 0.10332,0.0731 0.22959,0.0731 h 0.22959 l -0.0505,-1.80661 c -0.0331,-1.18288 -0.0825,-1.81562 -0.1431,-1.8327 -0.0509,-0.0144 -0.0926,-0.17129 -0.0926,-0.34878 0,-0.17748 -0.0389,-0.3227 -0.0865,-0.3227 -0.0476,0 -0.0865,-0.11508 -0.0865,-0.25573 0,-0.14064 -0.0389,-0.25572 -0.0865,-0.25572 -0.0476,0 -0.0865,-0.0967 -0.0865,-0.21488 0,-0.11819 -0.0364,-0.23391 -0.081,-0.25717 -0.0445,-0.0232 -0.083,-0.0992 -0.0855,-0.1687 -0.0103,-0.29202 -0.11748,-0.67441 -0.18897,-0.67441 -0.0424,0 -0.077,-0.0493 -0.077,-0.10959 0,-0.0603 -0.0389,-0.1096 -0.0865,-0.1096 -0.0476,0 -0.0865,-0.0607 -0.0865,-0.1349 0,-0.0742 -0.0535,-0.23038 -0.11895,-0.34706 -0.0654,-0.11668 -0.17223,-0.31901 -0.23733,-0.44962 -0.0651,-0.1306 -0.14602,-0.23745 -0.17982,-0.23745 -0.0338,0 -0.087,-0.11508 -0.11824,-0.25573 -0.0312,-0.14064 -0.0914,-0.25572 -0.13365,-0.25572 -0.0423,0 -0.0769,-0.0585 -0.0769,-0.13 0,-0.0715 -0.0778,-0.17739 -0.17297,-0.23532 -0.0951,-0.058 -0.17297,-0.173 -0.17297,-0.25573 0,-0.0827 -0.0778,-0.1978 -0.17297,-0.25573 -0.0951,-0.058 -0.17297,-0.13949 -0.17297,-0.18126 0,-0.0418 -0.0973,-0.1646 -0.21621,-0.27295 -0.11892,-0.10834 -0.21621,-0.22556 -0.21621,-0.2605 0,-0.0349 -0.0973,-0.14073 -0.21621,-0.23512 -0.11892,-0.0944 -0.21622,-0.1985 -0.21622,-0.23137 0,-0.11258 -0.73371,-0.76468 -2.06688,-1.83699 -0.29022,-0.23343 -0.52767,-0.45535 -0.52767,-0.49319 0,-0.0378 -0.0737,-0.0688 -0.16389,-0.0688 -0.0901,0 -0.25554,-0.0816 -0.36756,-0.1814 -0.11202,-0.0998 -0.24372,-0.18197 -0.29268,-0.18266 -0.049,-7e-4 -0.14512,-0.067 -0.21369,-0.1474 -0.0686,-0.0803 -0.19092,-0.14613 -0.27191,-0.14613 -0.081,0 -0.25725,-0.074 -0.39171,-0.16439 -0.32432,-0.21809 -0.76143,-0.42012 -0.90898,-0.42012 -0.0654,0 -0.17501,-0.0657 -0.24358,-0.14613 -0.0686,-0.0803 -0.19392,-0.14613 -0.27855,-0.14613 -0.0846,0 -0.15388,-0.0329 -0.15388,-0.0731 0,-0.0402 -0.0584,-0.0731 -0.12972,-0.0731 -0.0714,0 -0.12973,-0.0286 -0.12973,-0.0634 0,-0.0349 -0.16458,-0.0821 -0.36571,-0.10488 -0.20113,-0.0228 -0.379505,-0.0765 -0.396384,-0.11923 -0.01688,-0.0427 -0.1442,-0.0778 -0.282935,-0.0778 -0.138737,0 -0.252249,-0.0329 -0.252249,-0.0731 0,-0.0402 -0.0973,-0.0731 -0.216212,-0.0731 -0.118917,0 -0.216213,-0.0329 -0.216213,-0.0731 0,-0.0402 -0.09729,-0.0731 -0.216212,-0.0731 -0.118917,0 -0.216212,-0.0286 -0.216212,-0.0636 0,-0.035 -0.192993,-0.0853 -0.428871,-0.11172 -0.235879,-0.0264 -0.452226,-0.08 -0.480772,-0.11901 -0.02855,-0.039 -0.183521,-0.071 -0.34439,-0.071 -0.160869,0 -0.316542,-0.0329 -0.34594,-0.0731 -0.0294,-0.0402 -0.28142,-0.0731 -0.560049,-0.0731 -0.301335,0 -0.51987,-0.0336 -0.539353,-0.083 -0.04613,-0.11691 -4.847227,-0.11592 -4.893361,8.4e-4 -0.01856,0.0471 -0.229989,0.082 -0.495715,0.082 -0.254845,0 -0.487408,0.0329 -0.516806,0.0731 -0.0294,0.0402 -0.185071,0.0731 -0.34594,0.0731 -0.160869,0 -0.315845,0.0319 -0.34439,0.071 -0.02855,0.039 -0.244893,0.0926 -0.480772,0.11901 -0.235878,0.0264 -0.428871,0.0767 -0.428871,0.11171 0,0.035 -0.0973,0.0636 -0.216212,0.0636 -0.118917,0 -0.216212,0.0329 -0.216212,0.0731 0,0.0402 -0.136214,0.0731 -0.302698,0.0731 -0.166484,0 -0.302697,0.0329 -0.302697,0.0731 0,0.0402 -0.07459,0.0731 -0.165764,0.0731 -0.09117,0 -0.179572,0.035 -0.19645,0.0778 -0.01688,0.0427 -0.195254,0.0964 -0.39639,0.11922 -0.201136,0.0228 -0.365701,0.07 -0.365701,0.10488 0,0.0349 -0.05838,0.0634 -0.129728,0.0634 -0.07135,0 -0.129727,0.0329 -0.129727,0.0731 0,0.0402 -0.06925,0.0731 -0.153878,0.0731 -0.08463,0 -0.209979,0.0657 -0.278547,0.14613 -0.06857,0.0803 -0.174597,0.14613 -0.235618,0.14613 -0.133671,0 -0.572476,0.19495 -0.945643,0.42012 -0.149844,0.0904 -0.32595,0.16439 -0.391349,0.16439 -0.0654,0 -0.175006,0.0657 -0.243575,0.14613 -0.06857,0.0803 -0.193915,0.14613 -0.278547,0.14613 -0.08463,0 -0.153878,0.0493 -0.153878,0.1096 0,0.0602 -0.05838,0.1096 -0.129728,0.1096 -0.07135,0 -0.129727,0.0329 -0.129727,0.0731 0,0.0402 -0.07784,0.0731 -0.17297,0.0731 -0.09513,0 -0.17297,0.0301 -0.17297,0.0667 0,0.0879 -0.950315,0.88309 -1.055342,0.88309 -0.0937,0 -0.328418,0.18468 -0.328418,0.2584 0,0.0273 -0.184862,0.20632 -0.410804,0.39781 -0.525698,0.44553 -0.799986,0.71739 -0.799986,0.7929 0,0.0329 -0.09729,0.13699 -0.216212,0.23137 -0.118917,0.0944 -0.216213,0.20024 -0.216213,0.23525 0,0.035 -0.09729,0.14585 -0.216212,0.24631 -0.118917,0.10046 -0.216213,0.22322 -0.216213,0.27281 0,0.0496 -0.07784,0.13754 -0.17297,0.19546 -0.09513,0.058 -0.17297,0.17301 -0.17297,0.25573 0,0.0827 -0.07784,0.1978 -0.17297,0.25573 -0.09513,0.058 -0.17297,0.16382 -0.17297,0.23532 0,0.0715 -0.03892,0.12999 -0.08648,0.12999 -0.04757,0 -0.08648,0.0465 -0.08648,0.1033 0,0.0866 -0.302633,0.6574 -0.612934,1.15608 -0.04342,0.0698 -0.07895,0.19307 -0.07895,0.27398 0,0.0809 -0.03892,0.14713 -0.08648,0.14713 -0.04757,0 -0.08648,0.0493 -0.08648,0.1096 0,0.0602 -0.03466,0.10959 -0.07702,0.10959 -0.07149,0 -0.178629,0.38239 -0.188964,0.67441 -0.0025,0.0695 -0.04092,0.14545 -0.08546,0.1687 -0.04454,0.0232 -0.08098,0.13898 -0.08098,0.25716 0,0.1182 -0.03892,0.21489 -0.08648,0.21489 -0.04757,0 -0.08648,0.11508 -0.08648,0.25572 0,0.14065 -0.03892,0.25573 -0.08648,0.25573 -0.04757,0 -0.08648,0.14795 -0.08648,0.32879 0,0.18083 -0.03892,0.32878 -0.08648,0.32878 -0.04935,0 -0.08648,0.21777 -0.08648,0.50714 0,0.27893 -0.03892,0.52747 -0.08648,0.5523 -0.05231,0.0273 -0.08649,0.54874 -0.08649,1.31947 v 1.27431 h 0.259455 c 0.1427,0 0.259455,-0.0329 0.259455,-0.0731 0,-0.0402 0.07784,-0.0731 0.17297,-0.0731 0.09513,0 0.17297,-0.0286 0.17297,-0.0637 0,-0.0351 0.155672,-0.0848 0.345939,-0.11046 0.190267,-0.0257 0.34594,-0.0793 0.34594,-0.11894 0,-0.0397 0.03892,-0.0722 0.08648,-0.0722 0.05706,0 0.08648,2.38676 0.08648,7.01418 0,6.05843 -0.01698,7.01418 -0.124623,7.01418 -0.06854,0 -0.148676,-0.0329 -0.178074,-0.0731 z"
       id="path930" /></g></svg>
